<mxfile host="Electron" modified="2023-04-20T19:41:57.579Z" agent="Mozilla/5.0 (Windows NT 10.0; Win64; x64) AppleWebKit/537.36 (KHTML, like Gecko) draw.io/21.2.1 Chrome/112.0.5615.87 Electron/24.1.2 Safari/537.36" etag="OKEd2J8ZnvHvS_0rgUCx" version="21.2.1" type="device">
  <diagram name="Page-1" id="JkOY-Y6atQ1Dks83tEjW">
    <mxGraphModel dx="1434" dy="836" grid="1" gridSize="10" guides="1" tooltips="1" connect="1" arrows="1" fold="1" page="1" pageScale="1" pageWidth="850" pageHeight="1100" math="0" shadow="0">
      <root>
        <mxCell id="0" />
        <mxCell id="1" parent="0" />
        <mxCell id="MQnFgObsQuoQ8b0RTGbP-24" value="" style="rounded=0;whiteSpace=wrap;html=1;" parent="1" vertex="1">
          <mxGeometry x="360" y="360" width="200" height="200" as="geometry" />
        </mxCell>
        <mxCell id="MQnFgObsQuoQ8b0RTGbP-5" value="EZWallet" style="ellipse;whiteSpace=wrap;html=1;" parent="1" vertex="1">
          <mxGeometry x="400" y="420.5" width="120" height="80" as="geometry" />
        </mxCell>
        <mxCell id="MQnFgObsQuoQ8b0RTGbP-8" value="User" style="shape=umlActor;verticalLabelPosition=bottom;verticalAlign=top;html=1;outlineConnect=0;" parent="1" vertex="1">
          <mxGeometry x="260" y="420" width="40" height="80" as="geometry" />
        </mxCell>
        <mxCell id="MQnFgObsQuoQ8b0RTGbP-13" value="Project Team" style="shape=umlActor;verticalLabelPosition=bottom;verticalAlign=top;html=1;outlineConnect=0;" parent="1" vertex="1">
          <mxGeometry x="600" y="560" width="40" height="80" as="geometry" />
        </mxCell>
        <mxCell id="MQnFgObsQuoQ8b0RTGbP-15" value="Company (owner)" style="shape=umlActor;verticalLabelPosition=bottom;verticalAlign=top;html=1;outlineConnect=0;" parent="1" vertex="1">
          <mxGeometry x="600" y="281" width="40" height="79" as="geometry" />
        </mxCell>
        <mxCell id="MQnFgObsQuoQ8b0RTGbP-25" value="System" style="text;html=1;strokeColor=none;fillColor=none;align=center;verticalAlign=middle;whiteSpace=wrap;rounded=0;" parent="1" vertex="1">
          <mxGeometry x="420" y="361" width="80" height="41" as="geometry" />
        </mxCell>
        <mxCell id="MQnFgObsQuoQ8b0RTGbP-28" value="" style="endArrow=none;html=1;rounded=0;exitX=0;exitY=0.5;exitDx=0;exitDy=0;" parent="1" source="MQnFgObsQuoQ8b0RTGbP-5" target="MQnFgObsQuoQ8b0RTGbP-8" edge="1">
          <mxGeometry width="50" height="50" relative="1" as="geometry">
            <mxPoint x="220" y="370" as="sourcePoint" />
            <mxPoint x="360" y="320" as="targetPoint" />
          </mxGeometry>
        </mxCell>
        <mxCell id="MQnFgObsQuoQ8b0RTGbP-30" value="" style="endArrow=none;html=1;rounded=0;" parent="1" source="MQnFgObsQuoQ8b0RTGbP-5" target="MQnFgObsQuoQ8b0RTGbP-15" edge="1">
          <mxGeometry width="50" height="50" relative="1" as="geometry">
            <mxPoint x="550" y="360" as="sourcePoint" />
            <mxPoint x="580" y="280" as="targetPoint" />
          </mxGeometry>
        </mxCell>
        <mxCell id="MQnFgObsQuoQ8b0RTGbP-31" value="" style="endArrow=none;html=1;rounded=0;" parent="1" source="MQnFgObsQuoQ8b0RTGbP-5" target="MQnFgObsQuoQ8b0RTGbP-13" edge="1">
          <mxGeometry width="50" height="50" relative="1" as="geometry">
            <mxPoint x="460" y="720" as="sourcePoint" />
            <mxPoint x="560" y="600" as="targetPoint" />
          </mxGeometry>
        </mxCell>
      </root>
    </mxGraphModel>
  </diagram>
</mxfile>
